<svg xmlns="http://www.w3.org/2000/svg" viewBox="0 0 1600 900" width="1600" height="900">
  <defs>
    <linearGradient id="sky" x1="0" y1="0" x2="0" y2="1">
      <stop offset="0" stop-color="#0b0f24"/>
      <stop offset="0.42" stop-color="#2b2757"/>
      <stop offset="0.7" stop-color="#7a4b6e"/>
      <stop offset="0.88" stop-color="#d98a5c"/>
      <stop offset="1" stop-color="#f0b27a"/>
    </linearGradient>
    <radialGradient id="glow" cx="0.6" cy="0.9" r="0.42">
      <stop offset="0" stop-color="#ffd39a" stop-opacity="0.7"/>
      <stop offset="0.5" stop-color="#ffb46a" stop-opacity="0.25"/>
      <stop offset="1" stop-color="#ffb46a" stop-opacity="0"/>
    </radialGradient>
    <linearGradient id="tarn" x1="0" y1="0" x2="0" y2="1">
      <stop offset="0" stop-color="#f0b27a"/>
      <stop offset="0.35" stop-color="#b8746b"/>
      <stop offset="1" stop-color="#2b2757"/>
    </linearGradient>
    <linearGradient id="fog" x1="0" y1="0" x2="0" y2="1">
      <stop offset="0" stop-color="#f0b27a" stop-opacity="0"/>
      <stop offset="1" stop-color="#f0b27a" stop-opacity="0.32"/>
    </linearGradient>
    <linearGradient id="stoneface" x1="0" y1="0" x2="1" y2="0">
      <stop offset="0" stop-color="#2a3040"/>
      <stop offset="0.7" stop-color="#3d4556"/>
      <stop offset="1" stop-color="#5a6274"/>
    </linearGradient>
    <radialGradient id="vignette" cx="0.5" cy="0.5" r="0.75">
      <stop offset="0.6" stop-color="#0b0f19" stop-opacity="0"/>
      <stop offset="1" stop-color="#0b0f19" stop-opacity="0.55"/>
    </radialGradient>
  </defs>
  <rect width="1600" height="900" fill="url(#sky)"/>
  <rect width="1600" height="900" fill="url(#glow)"/>
  <g fill="#e8edf5">
    <circle cx="120" cy="80" r="1.6" opacity="0.9"/>
    <circle cx="260" cy="140" r="1.2" opacity="0.7"/>
    <circle cx="410" cy="60" r="1.8" opacity="0.85"/>
    <circle cx="560" cy="120" r="1.1" opacity="0.6"/>
    <circle cx="700" cy="40" r="1.5" opacity="0.8"/>
    <circle cx="820" cy="170" r="1.2" opacity="0.55"/>
    <circle cx="960" cy="90" r="1.7" opacity="0.85"/>
    <circle cx="1090" cy="50" r="1.3" opacity="0.7"/>
    <circle cx="1230" cy="130" r="1.1" opacity="0.6"/>
    <circle cx="1370" cy="70" r="1.6" opacity="0.8"/>
    <circle cx="1500" cy="150" r="1.2" opacity="0.6"/>
    <circle cx="180" cy="230" r="1" opacity="0.45"/>
    <circle cx="640" cy="250" r="1" opacity="0.4"/>
    <circle cx="1180" cy="240" r="1.1" opacity="0.45"/>
    <circle cx="1440" cy="280" r="1" opacity="0.35"/>
    <circle cx="330" cy="310" r="0.9" opacity="0.3"/>
  </g>
  <g fill="#0b0f24" opacity="0.5">
    <path d="M326 226 C340 216 380 216 394 226 C380 236 340 236 326 226 Z"/>
    <path d="M394 224 C420 226 446 240 470 262 C446 250 422 240 398 232 Z"/>
    <path d="M330 222 C318 214 306 206 300 196 C304 194 310 194 316 198 C312 192 312 186 316 180 C322 190 328 206 330 222 Z"/>
    <path d="M300 196 C292 194 286 190 282 186 C290 186 296 188 302 192 Z"/>
    <path d="M352 220 C344 198 334 178 318 160 C344 168 362 186 370 212 C376 204 384 200 394 200 C384 208 378 216 374 222 Z"/>
    <path d="M366 220 C372 200 384 184 402 172 C396 188 392 204 392 220 Z"/>
  </g>
  <path d="M0 560 C120 512 260 548 400 508 C540 468 660 522 800 486 C940 450 1060 512 1200 478 C1340 444 1460 500 1600 470 L1600 900 L0 900 Z" fill="#2a2c55" opacity="0.92"/>
  <rect x="0" y="470" width="1600" height="220" fill="url(#fog)"/>
  <path d="M0 640 C140 600 260 632 400 606 C540 580 660 620 800 596 C940 572 1080 616 1220 590 C1360 564 1480 604 1600 588 L1600 900 L0 900 Z" fill="#1f2a45"/>
  <path d="M0 700 C160 668 300 690 440 680 C580 670 700 700 860 686 C1020 672 1160 700 1320 690 C1440 682 1520 700 1600 696 L1600 900 L0 900 Z" fill="#1c3527"/>
  <g fill="#6b3f7a" opacity="0.45">
    <ellipse cx="220" cy="742" rx="90" ry="14"/>
    <ellipse cx="700" cy="770" rx="120" ry="16"/>
    <ellipse cx="1040" cy="742" rx="80" ry="12"/>
    <ellipse cx="1480" cy="768" rx="100" ry="15"/>
    <ellipse cx="380" cy="808" rx="70" ry="10"/>
  </g>
  <ellipse cx="560" cy="792" rx="250" ry="34" fill="url(#tarn)"/>
  <ellipse cx="560" cy="792" rx="250" ry="34" fill="none" stroke="#f0b27a" stroke-opacity="0.35" stroke-width="2"/>
  <ellipse cx="560" cy="806" rx="120" ry="6" fill="#f0b27a" opacity="0.25"/>
  <path d="M1080 720 C1160 660 1300 640 1420 676 C1500 700 1560 720 1600 726 L1600 900 L1040 900 Z" fill="#17291f"/>
  <g>
    <path d="M1292 462 L1334 458 L1352 694 L1282 696 Z" fill="url(#stoneface)"/>
    <path d="M1334 458 L1352 694" fill="none" stroke="#e3b34c" stroke-opacity="0.65" stroke-width="3"/>
    <path d="M1372 560 L1414 548 L1450 690 L1392 696 Z" fill="url(#stoneface)"/>
    <path d="M1414 548 L1450 690" fill="none" stroke="#e3b34c" stroke-opacity="0.5" stroke-width="2.5"/>
    <path d="M1210 600 L1256 592 L1264 696 L1206 700 Z" fill="url(#stoneface)"/>
    <path d="M1256 592 L1264 696" fill="none" stroke="#e3b34c" stroke-opacity="0.45" stroke-width="2.5"/>
    <path d="M1180 700 C1260 690 1380 690 1480 702 L1480 720 L1180 722 Z" fill="#0f1a14"/>
  </g>
  <g transform="translate(1301 440) scale(1.9)">
    <path d="M-6 6 C-12 12 -19 20 -26 28 C-20 25 -14 21 -9.5 16.5 C-7 14 -4.5 11 -0.5 8 Z" fill="#0b0f19"/>
    <ellipse cx="6.5" cy="1.5" rx="12.5" ry="8" transform="rotate(-22 6.5 1.5)" fill="#0b0f19"/>
    <circle cx="17" cy="-10" r="6.5" fill="#0b0f19"/>
    <path d="M23 -11.5 L32 -9 L23 -6.5 Z" fill="#0b0f19"/>
    <path d="M1 -2.5 C7 -6.5 14 -5 18 -1 C14 2 8 4 1.5 3.5 Z" fill="#e8edf5" opacity="0.9"/>
    <ellipse cx="4" cy="7" rx="6" ry="2.6" fill="#e8edf5" opacity="0.9"/>
    <path d="M33 -18 L34.2 -14.8 L37.4 -13.6 L34.2 -12.4 L33 -9.2 L31.8 -12.4 L28.6 -13.6 L31.8 -14.8 Z" fill="#e3b34c"/>
  </g>
  <g fill="#10201a">
    <path d="M0 900 L0 860 C30 850 40 832 46 812 C52 836 62 848 90 858 C110 838 118 826 122 808 C130 834 150 852 180 862 L180 900 Z"/>
    <path d="M600 900 L600 870 C620 862 632 846 640 826 C648 850 664 862 690 868 C700 852 708 838 712 822 C722 846 740 864 770 870 L770 900 Z"/>
    <path d="M1420 900 L1420 862 C1450 854 1462 838 1470 816 C1478 840 1494 856 1520 862 C1532 846 1540 832 1546 812 C1556 840 1574 858 1600 866 L1600 900 Z"/>
    <path d="M960 900 L960 878 C980 872 988 860 994 846 C1002 864 1014 874 1036 880 L1036 900 Z"/>
  </g>
  <rect width="1600" height="900" fill="url(#vignette)"/>
</svg>
